<svg xmlns="http://www.w3.org/2000/svg" width="150" height="101.25" viewBox="0 0 150 101.25"><g transform="translate(19160 2323)"><rect width="150" height="101.25" transform="translate(-19160 -2323)" fill="#fff" opacity="0"/><g transform="translate(-19148.75 -2319.143)"><path d="M721.73,227.564H687.724a1.25,1.25,0,0,1-1-2l4.979-6.656a1.25,1.25,0,0,1,2,1.5l-3.484,4.657h30.26V212.927l-20.919-8.7a1.25,1.25,0,1,1,.96-2.308l21.689,9.016a1.25,1.25,0,0,1,.77,1.154V226.31a1.25,1.25,0,0,1-1.249,1.254Z" transform="translate(-616.661 -165.025)"/><path d="M721.73,227.564H687.724a1.25,1.25,0,0,1-1-2l4.979-6.656a1.25,1.25,0,0,1,2,1.5l-3.484,4.657h30.26V212.927l-20.919-8.7a1.25,1.25,0,1,1,.96-2.308l21.689,9.016a1.25,1.25,0,0,1,.77,1.154V226.31a1.25,1.25,0,0,1-1.249,1.254Z" transform="translate(-616.661 -165.025)"/><path d="M676.814,192.005h17.86a1.25,1.25,0,0,1,.976.469l14.3,17.861a1.25,1.25,0,0,1,.274.781v7.832a1.25,1.25,0,0,1-1.25,1.25h-32.16a1.25,1.25,0,0,1-1.25-1.25V193.255A1.25,1.25,0,0,1,676.814,192.005Zm17.259,2.5H678.064V217.7h29.657v-6.144Z" transform="translate(-625.592 -173.064)"/><path d="M676.814,192.005h17.86a1.25,1.25,0,0,1,.976.469l14.3,17.861a1.25,1.25,0,0,1,.274.781v7.832a1.25,1.25,0,0,1-1.25,1.25h-32.16a1.25,1.25,0,0,1-1.25-1.25V193.255A1.25,1.25,0,0,1,676.814,192.005Zm17.259,2.5H678.064V217.7h29.657v-6.144Z" transform="translate(-625.592 -173.064)"/><path d="M0,10a1.246,1.246,0,0,1-.884-.366,1.25,1.25,0,0,1,0-1.768L7.871-.884a1.25,1.25,0,0,1,1.768,0,1.25,1.25,0,0,1,0,1.768L.884,9.636A1.246,1.246,0,0,1,0,10Z" transform="translate(58.573 28.005)"/><path d="M0,10a1.246,1.246,0,0,1-.884-.366,1.25,1.25,0,0,1,0-1.768L7.871-.884a1.25,1.25,0,0,1,1.768,0,1.25,1.25,0,0,1,0,1.768L.884,9.636A1.246,1.246,0,0,1,0,10Z" transform="translate(58.573 28.005)"/><path d="M0,6.307a1.246,1.246,0,0,1-.884-.366,1.25,1.25,0,0,1,0-1.768L4.173-.884a1.25,1.25,0,0,1,1.768,0,1.25,1.25,0,0,1,0,1.768L.884,5.941A1.246,1.246,0,0,1,0,6.307Z" transform="translate(66.003 35.433)"/><path d="M0,6.307a1.246,1.246,0,0,1-.884-.366,1.25,1.25,0,0,1,0-1.768L4.173-.884a1.25,1.25,0,0,1,1.768,0,1.25,1.25,0,0,1,0,1.768L.884,5.941A1.246,1.246,0,0,1,0,6.307Z" transform="translate(66.003 35.433)"/><path d="M705.888,231.792a6.6,6.6,0,1,1,6.6-6.6,6.6,6.6,0,0,1-6.6,6.6Zm0-10.7a4.1,4.1,0,1,1,0,.008Z" transform="translate(-606.168 -151.299)"/><path d="M5.348-1.25a6.6,6.6,0,1,1-6.6,6.6A6.6,6.6,0,0,1,5.348-1.25Zm0,10.7a4.1,4.1,0,1,0-4.1-4.1,4.1,4.1,0,0,0,4.1,4.1Z" transform="translate(94.37 68.547)" fill="#da3832"/><g transform="translate(3.128 2.713)"><path d="M650.368,184.068a1.25,1.25,0,0,1,1.183.85l7.436,19.221a1.249,1.249,0,0,1,.079.563l-2.382,26.472a1.25,1.25,0,0,1-1.591,1.089,3.579,3.579,0,0,0-.989-.143,2.983,2.983,0,0,0-1.347.311q-.05.025-.1.046a7.25,7.25,0,0,0-1.564.85,1.25,1.25,0,0,1-1.973-1.02v-46.99a1.251,1.251,0,0,1,1.251-1.25Zm6.182,20.7-4.933-12.752V230.2l.074-.03a5.463,5.463,0,0,1,2.413-.549h.209Z" transform="translate(-650.367 -182.274)"/><path d="M650.367,182.394a1.25,1.25,0,0,1,.972.464v0a1.25,1.25,0,0,1,.216,1.174v.013a1.25,1.25,0,0,1-2.438-.388v-.019a1.25,1.25,0,0,1,1.25-1.25Z" transform="translate(-650.367 -183.644)"/></g><path d="M715.672,221.687a1.25,1.25,0,0,1,.972.465c2.213,2.739,5.326,4.437,14,4.44a1.25,1.25,0,0,1,1.044,1.936l-4.626,7.048a1.25,1.25,0,0,1-1.045.564H703.5a1.25,1.25,0,0,1,0-2.5,10.965,10.965,0,0,0,10.925-10.73,1.25,1.25,0,0,1,1.25-1.223Zm12.684,7.362a26.773,26.773,0,0,1-7.976-1.3,12.548,12.548,0,0,1-3.784-2.1,13.4,13.4,0,0,1-3.7,6.631,13.6,13.6,0,0,1-1.62,1.363h14.062Z" transform="translate(-603.746 -148.769)"/><path d="M673.51,192.005h26.947a1.25,1.25,0,0,1,.976.469l14.3,17.861a1.25,1.25,0,0,1,.274.781v23.237a1.25,1.25,0,0,1-1.25,1.25H691.548a1.25,1.25,0,0,1-1.128-.711,16.289,16.289,0,0,0-5.868-6.671,16.085,16.085,0,0,0-14.368-1.55A1.25,1.25,0,0,1,668.5,225.5V197.016A5.016,5.016,0,0,1,673.51,192.005Zm26.346,2.5H673.51a2.514,2.514,0,0,0-2.51,2.511v26.773a18.567,18.567,0,0,1,14.908,2.332,18.786,18.786,0,0,1,6.41,6.983H713.5V211.555Z" transform="translate(-631.375 -173.064)"/><path d="M708.876,214.819h0a13.472,13.472,0,1,1-13.224,16.015,1.25,1.25,0,0,1,1.084-1.477,6.232,6.232,0,0,0,5.536-6.171,6.164,6.164,0,0,0-1.489-4,1.25,1.25,0,0,1,.226-1.818A13.366,13.366,0,0,1,708.876,214.819Zm0,24.444a10.972,10.972,0,0,0,0-21.944h0a10.848,10.848,0,0,0-5.352,1.405,8.537,8.537,0,0,1,1.252,4.462,8.724,8.724,0,0,1-6.364,8.381,10.978,10.978,0,0,0,10.467,7.7Z" transform="translate(-609.163 -154.391)" fill="#da3832"/><path d="M676.05,244.689h-4.075a1.25,1.25,0,0,1-1.166-.8l-21.477-55.517a5.485,5.485,0,0,1,9.257-5.58l18.62,21.473a1.25,1.25,0,0,1,.3.694l3.346,33.368a1.25,1.25,0,0,1-.371,1.02,16.2,16.2,0,0,0-3.306,4.631,1.25,1.25,0,0,1-1.128.711Zm-3.219-2.5h2.449a18.662,18.662,0,0,1,3.028-4.2L675.061,205.6,656.7,184.431a2.985,2.985,0,0,0-5.037,3.039Z" transform="translate(-647.365 -182.152)"/><path d="M681.736,214.6h26.689a8.753,8.753,0,0,1,0,17.506H681.736a1.25,1.25,0,0,1-1.128-1.789,16.042,16.042,0,0,0,0-13.93,1.25,1.25,0,0,1,1.128-1.789Zm10.823,2.5h-8.948a18.516,18.516,0,0,1,0,12.508h24.813a6.253,6.253,0,0,0,0-12.506h-15.8Z" transform="translate(-621.56 -154.567)"/><path d="M656.512,214.6h14.381a1.25,1.25,0,0,1,1.128,1.788,16.038,16.038,0,0,0,0,13.929,1.25,1.25,0,0,1-1.128,1.789H656.512a1.25,1.25,0,0,1-1.25-1.25V223.6a1.25,1.25,0,0,1,.749-1.145,13.014,13.014,0,0,0,1.226-.617q-.644-.244-1.268-.545a1.25,1.25,0,0,1-.707-1.126V215.85a1.25,1.25,0,0,1,1.25-1.25Zm12.507,2.5H657.762v2.259a13.052,13.052,0,0,0,2.6.77,1.25,1.25,0,0,1,1.023,1.229v.007a1.25,1.25,0,0,1-.469.976,18.218,18.218,0,0,1-3.157,2.053v5.212h11.256a18.505,18.505,0,0,1,0-12.506Z" transform="translate(-642.206 -154.567)"/><path d="M658.69,230.306a10.339,10.339,0,0,1-1.161-.065,10.967,10.967,0,0,1-7.326-4.224A13.168,13.168,0,0,1,647.743,221a10.955,10.955,0,0,1-.009-5.433,8.532,8.532,0,0,1,1.852-3.473,9.135,9.135,0,0,1,3.514-2.415,5.721,5.721,0,0,1,6.3.846,1.245,1.245,0,0,1,.108.106c1.69,1.89,1,4.025.438,5.74a6.7,6.7,0,0,0-.522,3.265c.231,1.17,1.213,2.262,3,3.34a13.066,13.066,0,0,0,4.376,1.66,1.256,1.256,0,0,1,.553,2.212,16.517,16.517,0,0,1-5.064,2.853A11.426,11.426,0,0,1,658.69,230.306ZM655.618,211.6a3.242,3.242,0,0,0-1.452.344q-.05.025-.1.046a6.187,6.187,0,0,0-3.915,4.231,9.765,9.765,0,0,0,2.013,8.244,8.488,8.488,0,0,0,5.651,3.294,8.62,8.62,0,0,0,3.7-.426,12.044,12.044,0,0,0,2.169-.98,15.546,15.546,0,0,1-2.536-1.232c-2.428-1.461-3.791-3.1-4.166-5a8.8,8.8,0,0,1,.6-4.522c.559-1.72.732-2.517.124-3.245a3.235,3.235,0,0,0-2.088-.754Z" transform="translate(-648.646 -159.071)"/><path d="M676.514,232.306a8.888,8.888,0,1,1,8.888-8.888,8.888,8.888,0,0,1-8.888,8.888Zm0-15.275a6.388,6.388,0,1,0,6.388,6.388,6.388,6.388,0,0,0-6.388-6.388Z" transform="translate(-632.087 -154.626)" fill="#da3832"/><path d="M680.936,209.131a18.653,18.653,0,1,1-7.282,1.471A18.653,18.653,0,0,1,680.936,209.131Zm0,34.915a16.208,16.208,0,1,0-11.461-4.748,16.208,16.208,0,0,0,11.461,4.748Z" transform="translate(-636.507 -159.047)" fill="#da3832"/></g></g></svg>