<svg xmlns="http://www.w3.org/2000/svg" width="150" height="101.25" viewBox="0 0 150 101.25"><g transform="translate(18901 2164)"><rect width="150" height="101.25" transform="translate(-18901 -2164)" fill="#fff" opacity="0"/><g transform="translate(-18874.75 -2148.999)"><path d="M3.7-1.25A4.945,4.945,0,1,1-1.25,3.7,4.945,4.945,0,0,1,3.7-1.25Zm0,7.391A2.445,2.445,0,1,0,1.25,3.7,2.445,2.445,0,0,0,3.7,6.141Z" transform="translate(84.753 61.71)" fill="#ed1c24"/><path d="M964.5,375.993a1.25,1.25,0,0,1,.528.117,10.832,10.832,0,0,1-4.561,20.659,10.786,10.786,0,0,1-10.112-14.7,1.25,1.25,0,0,1,.5-.612,42.947,42.947,0,0,1,13.369-5.437,1.25,1.25,0,0,1,.276-.027Zm-4.033,18.276a8.356,8.356,0,0,0,8.346-8.346,8.242,8.242,0,0,0-1.348-4.528,8.413,8.413,0,0,0-3.118-2.833,40.523,40.523,0,0,0-11.794,4.788,8.156,8.156,0,0,0-.432,2.574,8.356,8.356,0,0,0,8.344,8.346Z" transform="translate(-872.019 -320.52)" fill="#ed1c24"/><path d="M933.5,399.7h-.027a2.152,2.152,0,0,1-2.152-2.1V352.7a2.166,2.166,0,1,1,4.332,0v44.9a2.162,2.162,0,0,1-2.153,2.1Z" transform="translate(-887.234 -341.697)"/><path d="M921.026,369.7h6.162a12.034,12.034,0,0,1,12.028,12.035v1.54a1.25,1.25,0,0,1-1.25,1.25H934.68a1.25,1.25,0,0,1-1.155-.771l-1.6-3.854H916.282l-1.6,3.854a1.25,1.25,0,0,1-1.155.771h-3.288a1.25,1.25,0,0,1-1.25-1.25v-1.54A12.035,12.035,0,0,1,921.026,369.7Zm15.689,12.325v-.29a9.534,9.534,0,0,0-9.529-9.535h-6.16a9.546,9.546,0,0,0-9.535,9.535v.29h1.2l1.6-3.854a1.25,1.25,0,0,1,1.155-.771h17.315a1.25,1.25,0,0,1,1.155.771l1.6,3.854Z" transform="translate(-905.808 -325.753)"/><path d="M936.039,368.337h4.043a3.78,3.78,0,0,1,3.775,3.776v1.87a2.832,2.832,0,0,1-2.829,2.829H938.25a3.465,3.465,0,0,1-3.461-3.461v-3.766a1.25,1.25,0,0,1,1.25-1.25Zm4.99,5.977a.329.329,0,0,0,.329-.329v-1.87a1.277,1.277,0,0,0-1.276-1.276h-2.793v2.515a.962.962,0,0,0,.961.961Z" transform="translate(-884.353 -326.887)"/><path d="M944.211,368.584a2.166,2.166,0,0,1-.678-4.223l3.836-1.322a2.169,2.169,0,1,1,1.416,4.1l-3.849,1.327h-.006a2.182,2.182,0,0,1-.691.116Z" transform="translate(-878.319 -331.393)"/><path d="M954.709,370.694h-5.22a2.166,2.166,0,1,1,0-4.332h5.22a2.166,2.166,0,1,1,0,4.332Z" transform="translate(-873.928 -328.529)"/><path d="M949.273,390.828a1.251,1.251,0,0,1-1.2-.9,32.229,32.229,0,0,1-.925-4.824c-.421-3.686-.076-6.594,1.025-8.642a1.25,1.25,0,0,1,.529-.52c5.6-2.881,10.484-4.342,14.525-4.342a10.916,10.916,0,0,1,7.674,2.671,8.3,8.3,0,0,1,2.611,5.651,1.25,1.25,0,0,1-1.12,1.3,44.69,44.69,0,0,0-9.679,2.08,39.709,39.709,0,0,0-6.944,3.1,27.411,27.411,0,0,0-5.6,4.047,1.253,1.253,0,0,1-.9.374Zm.937-12.851a13.573,13.573,0,0,0-.583,6.8c.1.921.248,1.775.388,2.484a34.852,34.852,0,0,1,4.415-2.978,42.147,42.147,0,0,1,7.408-3.324,46.829,46.829,0,0,1,9-2.072,5.783,5.783,0,0,0-1.654-2.8,8.493,8.493,0,0,0-5.958-1.989c-3.554,0-7.932,1.3-13.016,3.88Z" transform="translate(-874.218 -324.174)"/><path d="M928.776,376.815h-1.933a1.25,1.25,0,0,1-1.211-.939L924.1,369.9a1.25,1.25,0,0,1,1.211-1.561h2.566a3.78,3.78,0,0,1,3.776,3.776v1.832A2.874,2.874,0,0,1,928.776,376.815Zm-.963-2.5h.963a.371.371,0,0,0,.373-.369v-1.834a1.277,1.277,0,0,0-1.276-1.276h-.954Z" transform="translate(-893.278 -326.888)"/><path d="M985,349.967h.009a1.25,1.25,0,0,1,1.14.758l8.51,19.863a16.116,16.116,0,0,1-1.175,14.94l-4.728,7.5a1.25,1.25,0,0,1-.647.514,45.8,45.8,0,0,0-5.66,2.428c-.753,1.668-.931,4.192-.513,7.338a1.25,1.25,0,0,1-.182.831l-.778,1.235a1.25,1.25,0,0,1-1.057.583H933.866a1.25,1.25,0,0,1-1.193-.875,8.491,8.491,0,0,0-2.964-4.2,8.247,8.247,0,0,0-9.912,0,8.491,8.491,0,0,0-2.964,4.2,1.25,1.25,0,0,1-1.192.875h-6.18a1.25,1.25,0,0,1-1.25-1.25v-53a1.25,1.25,0,0,1,1.25-1.25h13.693a1.25,1.25,0,0,1,1.25,1.25v28.28h13.149a1.25,1.25,0,0,1,1.211.939l4.307,16.746H967.5a7.982,7.982,0,0,0,7.963-7.971V351.71a1.25,1.25,0,0,1,1.25-1.25H984A1.25,1.25,0,0,1,985,349.967Zm-63.1,2.993H910.711v50.5h4.053a10.782,10.782,0,0,1,19.979,0h44.486l.172-.273c-.441-3.727-.1-6.663,1.01-8.731a1.25,1.25,0,0,1,.529-.519,49.32,49.32,0,0,1,5.932-2.606l4.5-7.132a13.616,13.616,0,0,0,.993-12.622l-7.974-18.613h-6.423V389.7A10.472,10.472,0,0,1,967.5,400.175H942.1a1.25,1.25,0,0,1-1.211-.939l-4.307-16.746h-13.43a1.25,1.25,0,0,1-1.25-1.25Z" transform="translate(-906.457 -342.165)"/><path d="M961.761,377.775H949.073a1.25,1.25,0,0,1-1.25-1.25l.005-24.814a1.25,1.25,0,0,1,1.25-1.25h1.981a1.25,1.25,0,0,1,1-.5h.01a1.25,1.25,0,0,1,1.139.758l8.512,19.865a16.009,16.009,0,0,1,1.293,5.9,1.25,1.25,0,0,1-1.25,1.283Zm-11.438-2.5h10.094a13.521,13.521,0,0,0-1-3.7l-7.974-18.61h-1.117Z" transform="translate(-873.513 -342.166)"/><path d="M0-1.25H13.694A1.25,1.25,0,0,1,14.944,0V29.532a1.25,1.25,0,0,1-1.25,1.25H0a1.25,1.25,0,0,1-1.25-1.25V0A1.25,1.25,0,0,1,0-1.25Zm12.444,2.5H1.25V28.282H12.444Z" transform="translate(3.004 9.544)"/><path d="M986.143,357.07H907.821a1.25,1.25,0,0,1-1.25-1.25v-.62a10.187,10.187,0,0,1,10.176-10.176h73.661a1.25,1.25,0,0,1,1.141,1.76l-4.264,9.545a1.25,1.25,0,0,1-1.142.741Zm-77.047-2.5h76.236l3.147-7.045H916.747a7.686,7.686,0,0,0-7.647,7.045Z" transform="translate(-907.821 -346.275)"/><path d="M933.3,366.358h5.2a1.25,1.25,0,0,1,1.25,1.25V375a.962.962,0,0,0,.961.961,3.465,3.465,0,0,1,3.461,3.461v5.87a1.25,1.25,0,0,1-1.25,1.25h-9.333a1.25,1.25,0,0,1-1.1-.65l-.52-.951a1.25,1.25,0,0,1-.153-.617l.227-16.732a1.25,1.25,0,0,1,1.257-1.234Zm3.954,2.5h-2.721l-.206,15.171.007.012h7.341v-4.62a.962.962,0,0,0-.961-.961,3.465,3.465,0,0,1-3.459-3.46Z" transform="translate(-886.819 -328.533)"/><path d="M3.7-1.25A4.945,4.945,0,1,1-1.25,3.7,4.945,4.945,0,0,1,3.7-1.25Zm0,7.391A2.445,2.445,0,1,0,1.25,3.7,2.445,2.445,0,0,0,3.7,6.141Z" transform="translate(14.604 61.71)" fill="#ed1c24"/><path d="M9.6-1.25A10.846,10.846,0,1,1-1.25,9.6,10.846,10.846,0,0,1,9.6-1.25Zm0,19.192A8.346,8.346,0,1,0,1.25,9.6,8.346,8.346,0,0,0,9.6,17.942Z" transform="translate(8.701 55.807)" fill="#ed1c24"/></g></g></svg>