<svg xmlns="http://www.w3.org/2000/svg" width="150" height="101.25" viewBox="0 0 150 101.25"><g transform="translate(19405 2008)"><rect width="150" height="101.25" transform="translate(-19405 -2008)" fill="#fff" opacity="0"/><g transform="translate(-19376.871 -2004.25)"><path d="M46.875-1.25A48.111,48.111,0,1,1,28.142,2.532,48.137,48.137,0,0,1,46.875-1.25Zm0,93.75a45.611,45.611,0,1,0-17.759-3.585A45.637,45.637,0,0,0,46.875,92.5Z"/><path d="M406.855,510.175a1.25,1.25,0,0,1-1.25-1.25,41.287,41.287,0,0,1,41.32-41.32,1.25,1.25,0,0,1,0,2.5,38.788,38.788,0,0,0-38.82,38.82,1.25,1.25,0,0,1-1.25,1.25Z" transform="translate(-400.048 -462.05)" fill="#da3832"/><g transform="translate(54.36 54.36)"><path d="M3.387-1.25H7.2a4.642,4.642,0,0,1,4.637,4.637v7.2a1.25,1.25,0,0,1-1.25,1.25H0a1.25,1.25,0,0,1-1.25-1.25v-7.2A4.642,4.642,0,0,1,3.387-1.25ZM9.335,9.335V3.387A2.14,2.14,0,0,0,7.2,1.25H3.387A2.14,2.14,0,0,0,1.25,3.387V9.335Z" transform="translate(0 7.484) rotate(-45)" fill="#da3832"/><path d="M0-1.25H4.536A1.25,1.25,0,0,1,5.786,0V7.56a1.25,1.25,0,0,1-1.25,1.25H0A1.25,1.25,0,0,1-1.25,7.56V0A1.25,1.25,0,0,1,0-1.25Zm3.286,2.5H1.25V6.31H3.286Z" transform="translate(9.622 12.831) rotate(-45)" fill="#da3832"/></g><path d="M34.022-1.25a35.262,35.262,0,1,1-13.73,2.772A35.281,35.281,0,0,1,34.022-1.25Zm0,68.044a32.762,32.762,0,1,0-12.756-2.575,32.781,32.781,0,0,0,12.756,2.575Z" transform="translate(12.858 12.853)"/></g></g></svg>